<?xml version="1.0" standalone="no"?>
<!DOCTYPE svg PUBLIC "-//W3C//DTD SVG 20010904//EN"
 "http://www.w3.org/TR/2001/REC-SVG-20010904/DTD/svg10.dtd">
<svg version="1.0" xmlns="http://www.w3.org/2000/svg"
 width="500.000000pt" height="500.000000pt" viewBox="0 0 500.000000 500.000000"
 preserveAspectRatio="xMidYMid meet">
<metadata>
Created by potrace 1.11, written by Peter Selinger 2001-2013
</metadata>
<g transform="translate(0.000000,500.000000) scale(0.100000,-0.100000)"
fill="#000000" stroke="none">
<path d="M440 4977 c-135 -41 -240 -112 -318 -218 -38 -52 -89 -151 -97 -189
-2 -8 -8 -36 -14 -62 -8 -33 -11 -642 -11 -2010 0 -2160 -4 -2023 62 -2158 70
-146 197 -257 357 -312 l66 -23 2000 0 c1100 0 2016 3 2037 7 200 40 372 194
450 401 l23 62 2 1995 c3 2213 8 2054 -64 2200 -25 52 -58 96 -107 146 -87 89
-170 137 -295 171 -14 4 -924 9 -2021 10 l-1995 2 -75 -22z"/>
</g>
</svg>
